<svg width="161" height="33" viewBox="0 0 161 33" fill="none" xmlns="http://www.w3.org/2000/svg">
<path d="M72.3574 29.0727C72.3106 28.0446 72.2515 26.8155 72.2633 25.7288H72.2279C71.9693 26.6971 71.6401 27.7727 71.2874 28.7774L70.1245 32.2281H69.0194L67.962 28.8245C67.6562 27.8083 67.3743 26.7213 67.1629 25.7288H67.1392C67.1038 26.7684 67.057 28.0328 66.9983 29.1202L66.8219 32.3227H65.4705L65.9992 24.3576H67.903L68.9372 27.5601C69.2194 28.4939 69.4663 29.4389 69.6659 30.3252H69.7013C69.9127 29.4626 70.1831 28.4821 70.4886 27.5482L71.5819 24.3576H73.4621L73.9199 32.3227H72.5098L72.3574 29.0727Z" fill="#231F20"/>
<path d="M78.6998 24.3577V29.002C78.6998 30.5617 79.3462 31.2829 80.3218 31.2829C81.3678 31.2829 81.9906 30.5617 81.9906 29.002V24.3577H83.4361V28.9074C83.4361 31.3653 82.1787 32.4527 80.2753 32.4527C78.4412 32.4527 77.2546 31.4246 77.2546 28.9192V24.3577H78.6998Z" fill="#231F20"/>
<path d="M88.4865 25.5746H86.23V24.3577H92.2115V25.5746H89.9317V32.3228H88.4865V25.5746Z" fill="#231F20"/>
<path d="M96.4518 24.3577V29.002C96.4518 30.5617 97.0982 31.2829 98.0737 31.2829C99.1193 31.2829 99.7425 30.5617 99.7425 29.002V24.3577H101.188V28.9074C101.188 31.3653 99.9307 32.4527 98.0269 32.4527C96.1931 32.4527 95.0066 31.4246 95.0066 28.9192V24.3577H96.4518Z" fill="#231F20"/>
<path d="M108.201 28.9663L107.578 27.0048C107.425 26.5203 107.296 25.9767 107.179 25.516H107.155C107.038 25.9767 106.92 26.5321 106.779 27.0048L106.168 28.9663H108.201ZM105.933 30.0656L105.252 32.3228H103.759L106.297 24.3577H108.143L110.716 32.3228H109.165L108.448 30.0656H105.933Z" fill="#231F20"/>
<path d="M113.698 24.3578H115.144V31.1052H118.399V32.3225H113.698V24.3578Z" fill="#231F20"/>
<path d="M126.042 24.3578H130.624V25.5509H127.487V27.7495H130.401V28.9307H127.487V32.3225H126.042V24.3578Z" fill="#231F20"/>
<path d="M135.335 24.3577V29.002C135.335 30.5617 135.981 31.2829 136.957 31.2829C138.003 31.2829 138.625 30.5617 138.625 29.002V24.3577H140.071V28.9074C140.071 31.3653 138.813 32.4527 136.91 32.4527C135.076 32.4527 133.889 31.4246 133.889 28.9192V24.3577H135.335Z" fill="#231F20"/>
<path d="M143.594 32.3227V24.3579H145.25L147.295 27.7727C147.812 28.659 148.283 29.5809 148.647 30.4435L148.67 30.4316C148.564 29.3802 148.541 28.3518 148.541 27.1349V24.3579H149.881V32.3227H148.377L146.308 28.8126C145.802 27.9381 145.286 26.9694 144.898 26.0709L144.851 26.0827C144.909 27.1115 144.933 28.163 144.933 29.4745V32.3227H143.594Z" fill="#231F20"/>
<path d="M154.873 31.2235C155.072 31.2591 155.378 31.2591 155.672 31.2591C157.552 31.271 158.668 30.2188 158.668 28.1983C158.68 26.449 157.67 25.4328 155.86 25.4328C155.401 25.4328 155.084 25.4688 154.873 25.516V31.2235ZM153.427 24.476C154.073 24.3696 154.873 24.2983 155.73 24.2983C157.211 24.2983 158.222 24.6059 158.951 25.2206C159.726 25.8469 160.197 26.8037 160.197 28.1508C160.197 29.5807 159.714 30.6328 158.962 31.3181C158.175 32.0389 156.918 32.4055 155.378 32.4055C154.544 32.4055 153.909 32.358 153.427 32.299V24.476Z" fill="#231F20"/>
<path d="M59.3813 32.3228H0.196533V27.4246H59.3813V32.3228Z" fill="#2EBCAD"/>
<path d="M9.14342 1.99864V18.1441C9.14342 19.0791 9.1697 19.7195 9.22265 20.0646C9.27559 20.4101 9.38682 20.6625 9.55557 20.8218C9.8622 21.1191 10.4275 21.2681 11.2514 21.2681C12.5305 21.2681 13.6344 20.9705 14.5646 20.3756C15.6422 19.6953 16.4239 18.5214 16.9103 16.8533C17.3434 15.3867 17.5601 13.6868 17.5601 11.7529C17.5601 8.39522 16.9468 5.81322 15.7214 4.00686C14.9291 2.83824 13.7399 2.19015 12.1549 2.0626C11.6689 2.02009 10.6652 1.99864 9.14342 1.99864ZM1.58301 22.5271V21.8575H2.18523C3.0202 21.8575 3.59081 21.6825 3.89745 21.3316C4.20332 20.9812 4.35683 20.3277 4.35683 19.3713V3.97507C4.35683 3.28447 4.31455 2.80108 4.22999 2.52492C4.14543 2.24837 3.97668 2.02009 3.72299 1.8393C3.33179 1.57386 2.81908 1.44095 2.18523 1.44095H1.58301V0.771413H11.4891C13.3278 0.771413 14.8019 0.957564 15.9119 1.32948C17.8344 1.9883 19.3988 3.08797 20.6033 4.62852C22.1143 6.56243 22.8697 8.92649 22.8697 11.7211C22.8697 14.0055 22.3467 16.0244 21.3007 17.7775C20.1595 19.7114 18.3894 21.0712 15.9911 21.8575C14.6488 22.3038 13.1484 22.5271 11.4891 22.5271H1.58301Z" fill="#231F20"/>
<path d="M39.9245 0.500564V7.32231H39.1638C38.9101 5.89821 38.3658 4.73495 37.5312 3.83177C36.2102 2.3866 34.562 1.66421 32.5858 1.66421C31.3809 1.66421 30.3932 1.9511 29.6219 2.52487C28.8608 3.09865 28.4807 3.85284 28.4807 4.78781C28.4807 5.298 28.6178 5.78675 28.8928 6.25443C29.1674 6.72172 29.532 7.08292 29.9864 7.33802C30.4618 7.61418 31.7089 8.12974 33.727 8.88392C35.3649 9.48949 36.345 9.85605 36.6673 9.9836C36.9895 10.1111 37.3091 10.2705 37.6264 10.462C39.9085 11.8325 41.0497 13.7718 41.0497 16.2794C41.0497 18.362 40.3153 19.9611 38.8465 21.0769C37.2935 22.2562 35.4495 22.8457 33.3149 22.8457C31.9413 22.8457 30.3776 22.5002 28.6231 21.81C28.0525 21.5867 27.6247 21.4752 27.3394 21.4752C26.6526 21.4752 26.1929 21.9054 25.9605 22.766H25.1206V14.9247H25.9605C26.0028 16.3802 26.6317 17.8039 27.8464 19.1962C28.4593 19.8972 29.2627 20.4552 30.2557 20.8697C31.2492 21.2837 32.2845 21.4909 33.3625 21.4909C34.5989 21.4909 35.6133 21.1776 36.406 20.5506C37.1983 19.945 37.5944 19.1215 37.5944 18.0805C37.5944 17.4959 37.4409 16.9383 37.1351 16.4066C36.8284 15.8757 36.4216 15.4613 35.9146 15.1637C35.4388 14.8768 34.1445 14.3294 32.0308 13.522C30.2348 12.8314 29.1332 12.3879 28.7263 12.1914C28.3195 11.9945 27.8464 11.6785 27.3078 11.2426C26.6526 10.7221 26.1399 10.0502 25.7704 9.22673C25.4002 8.40322 25.2155 7.52915 25.2155 6.6049C25.2155 4.74568 25.8706 3.27369 27.181 2.19011C28.5862 1.03183 30.2668 0.452686 32.2212 0.452686C33.0246 0.452686 33.7746 0.535037 34.4721 0.69974C35.1695 0.864442 36.1839 1.20189 37.5152 1.71208C37.7057 1.78601 37.9171 1.82355 38.1494 1.82355C38.8046 1.82355 39.1425 1.3823 39.1638 0.500564H39.9245Z" fill="#231F20"/>
<path d="M49.9735 11.2906C50.5548 11.3121 51.0252 11.3224 51.3844 11.3224C52.7789 11.3224 53.7933 10.993 54.4272 10.3342C55.1673 9.58004 55.5368 8.3689 55.5368 6.70043C55.5368 5.70187 55.4156 4.8435 55.1722 4.12647C54.9296 3.40906 54.586 2.89657 54.1422 2.58823C53.5926 2.20596 52.7789 2.01483 51.7013 2.01483C51.2046 2.01483 50.6287 2.03054 49.9735 2.06233V11.2906ZM49.9735 12.6136V19.3714C49.9735 20.0513 50.0131 20.5266 50.0923 20.7978C50.1716 21.0686 50.338 21.2892 50.5917 21.4593C50.9936 21.7247 51.5055 21.8577 52.1291 21.8577H53.1911V22.5272H42.4131V21.8577H42.9993C43.8236 21.8577 44.3946 21.6799 44.7115 21.3237C45.0285 20.9679 45.1869 20.3167 45.1869 19.3714V3.9273C45.1869 3.21524 45.15 2.73186 45.0761 2.47677C45.0018 2.22205 44.838 2.00909 44.5843 1.8394C44.1935 1.57358 43.6808 1.44105 43.0469 1.44105H42.4131V0.77152H53.1911C55.0827 0.77152 56.6041 1.07449 57.7564 1.68006C59.7638 2.7108 60.7675 4.37353 60.7675 6.66864C60.7675 8.12415 60.3237 9.34601 59.4362 10.3342C58.7281 11.1528 57.7796 11.7422 56.5911 12.1034C55.4023 12.4646 53.8409 12.6454 51.9074 12.6454C51.5166 12.6454 50.8717 12.6347 49.9735 12.6136Z" fill="#231F20"/>
</svg>
