<svg xmlns="http://www.w3.org/2000/svg" width="140" height="27" viewBox="0 0 140 27">
    <g fill="none" fill-rule="evenodd">
        <path fill="#008AC4" d="M11.777 0c2.981 0 5.4 2.417 5.4 5.4 0 2.827-2.173 5.146-4.936 5.383V6.625c.493-.188.844-.663.844-1.224 0-.723-.585-1.31-1.308-1.31-.723 0-1.31.587-1.31 1.31 0 .561.353 1.036.847 1.224v4.158C8.548 10.546 6.379 8.227 6.379 5.4 6.379 2.417 8.794 0 11.777 0M5.4 10.125c2.984 0 5.404 2.42 5.404 5.4 0 2.828-2.174 5.144-4.942 5.38V16.75c.496-.185.85-.665.85-1.224 0-.723-.588-1.31-1.311-1.31-.726 0-1.313.587-1.313 1.31 0 .56.356 1.039.852 1.224v4.156C2.172 20.669 0 18.353 0 15.526c0-2.981 2.417-5.4 5.4-5.4M17.878 10.125c2.983 0 5.398 2.42 5.398 5.4 0 2.828-2.172 5.144-4.935 5.38V16.75c.496-.185.845-.665.845-1.224 0-.723-.585-1.31-1.308-1.31-.723 0-1.308.587-1.308 1.31 0 .56.35 1.039.847 1.224v4.156c-2.769-.237-4.94-2.553-4.94-5.38 0-2.981 2.422-5.4 5.4-5.4M7.809 26.384h7.682c-2.434-2.331-3.54-5.326-3.896-8.696-.396 3.531-1.76 6.353-3.786 8.696"/>
        <path fill="#1A1919" d="M27.078 13.715v-2.329c.543.415 1.135.637 1.774.667.803-.03 1.28-.379 1.435-1.041.093-.435.02-.798-.22-1.097-.246-.298-.658-.649-1.238-1.049-.58-.402-1.004-.75-1.278-1.043-.608-.609-.926-1.442-.962-2.507.036-.596.11-1.074.23-1.432.206-.692.585-1.24 1.146-1.638.56-.393 1.194-.592 1.898-.592s1.404.195 2.1.588v2.375c-.607-.51-1.199-.763-1.775-.763-.65 0-1.055.388-1.205 1.17.012.28.09.545.237.79.145.244.362.49.65.738.288.25.594.49.913.716.32.23.489.356.515.374.442.35.779.78 1.015 1.297.232.512.349 1.076.349 1.682 0 .662-.15 1.28-.447 1.849-.297.568-.719 1.02-1.257 1.352-.533.33-1.144.494-1.83.494-.702 0-1.385-.199-2.05-.601zm7.074-11.866h2.799c.903 0 1.654.252 2.265.75.604.497.966 1.248 1.072 2.247v.538c0 1.081-.424 1.884-1.27 2.406.947.533 1.438 1.467 1.483 2.8.035.75-.12 1.388-.457 1.931-.337.536-.798.934-1.392 1.203-.59.265-1.254.398-1.994.398h-2.506V1.849zm2.443 2.035V6.88c.311.02.63-.087.943-.328.316-.236.48-.615.49-1.137 0-.478-.113-.854-.333-1.123-.227-.272-.569-.408-1.037-.408h-.063zm0 4.865v3.337c.347.012.64-.063.87-.22.232-.157.4-.37.506-.641.103-.271.155-.564.155-.88 0-.444-.13-.821-.384-1.13-.253-.309-.637-.466-1.147-.466zm5.445 5.373h2.439V1.849H42.04v12.273zm8.834-12.273h3.17l1.175 7.244h.03l.995-7.244h3.272l1.27 12.273h-2.473c-.038-.5-.077-1.119-.124-1.856l-.148-2.213c-.049-.74-.107-1.594-.17-2.572-.064-.976-.12-1.708-.164-2.197h-.033c-.075.76-.168 1.54-.285 2.335-.11.798-.242 1.589-.389 2.375-.147.789-.267 1.423-.36 1.907-.092.482-.225 1.222-.396 2.22H54.37c-.075-.4-.257-1.33-.545-2.781-.288-1.456-.506-2.574-.648-3.363-.148-.786-.281-1.61-.4-2.462v-.231h-.033l-.342 8.838h-2.62l1.092-12.273zm11.19 0h2.408v8.608c0 1.107.402 1.662 1.205 1.662.522.014.854-.14.999-.445.15-.313.222-.767.222-1.362V1.85h2.44v8.969c0 1.083-.252 1.93-.755 2.539-.503.606-1.46.929-2.871.96-1.077.023-1.954-.24-2.633-.782-.674-.541-1.015-1.458-1.015-2.752V1.849zm8.426 0h6.215V4.11H74.8v10.01h-2.407V4.112H70.49V1.85zm7.364 0h2.41v8.608c0 1.107.4 1.662 1.205 1.662.522.014.855-.14 1-.445.15-.313.22-.767.22-1.362V1.85h2.443v8.969c0 1.083-.253 1.93-.756 2.539-.506.606-1.465.929-2.876.96-1.072.023-1.95-.24-2.626-.782-.68-.541-1.02-1.458-1.02-2.752V1.849zm11.162 0h2.539L94.5 14.122h-2.572l-.472-2.069h-2.441l-.459 2.069h-2.41l2.869-12.273zm2.099 8.27L90.22 4.99h-.035l-.796 5.127h1.725zm4.437-8.27h2.443v9.975h2.506v2.298h-4.95V1.849zm10.134 0h4.898V4.11h-2.46V6.75h2.233v2.279h-2.233v5.094h-2.438V1.849zm6.454 0h2.41v8.608c0 1.107.4 1.662 1.205 1.662.517.014.854-.14 1.002-.445.145-.313.217-.767.217-1.362V1.85h2.44v8.969c0 1.083-.25 1.93-.755 2.539-.505.606-1.462.929-2.873.96-1.075.023-1.952-.24-2.63-.782-.677-.541-1.016-1.458-1.016-2.752V1.849zm9.03 0h2.31l3.058 7.408.033-.035c-.087-.293-.15-.728-.195-1.303v-6.07h2.408v12.273h-2.281l-3.024-7.406-.032.033c.086.76.14 1.34.161 1.74v5.633h-2.438V1.849zm9.4 0h2.443c1.71 0 2.974.615 3.783 1.839.805 1.228 1.18 2.784 1.11 4.673-.13 3.84-1.826 5.76-5.092 5.76h-2.244V1.85zm2.443 2.164v7.944c.875.01 1.507-.388 1.89-1.195.386-.812.58-1.776.58-2.907 0-1.01-.208-1.902-.633-2.679-.424-.772-1.037-1.163-1.837-1.163zM28.213 19.883h.649l1.315 6.121h-.822l-.24-1.186h-1.201l-.239 1.186h-.795l1.333-6.121zm.796 4.294l-.482-3.117h-.014l-.487 3.117h.983zM39.085 26.004v-6.121h1.156c.526 0 .908.129 1.149.381.236.255.363.658.379 1.203.005.686-.138 1.16-.428 1.43-.29.264-.702.402-1.226.412-.047-.01-.11-.017-.188-.017v2.712h-.842zm.842-3.39c.305.014.536-.05.698-.19.164-.14.243-.395.243-.763 0-.393-.075-.678-.225-.854-.15-.178-.39-.255-.716-.24v2.047zm6.924-2.731h.684l1.373 6.121h-.858l-.255-1.186h-1.257l-.243 1.186h-.836l1.392-6.121zm.834 4.294l-.501-3.117h-.019l-.508 3.117h1.028zm5.576 1.827v-6.121h1.158c.463 0 .81.108 1.034.318.225.218.36.555.405 1.013.026.298.005.585-.06.857-.066.274-.172.494-.312.664-.14.171-.306.27-.5.29l1.174 2.98h-.877l-1.166-2.996h-.016v2.995h-.84zm.84-3.407c.578.024.868-.318.868-1.036 0-.279-.056-.51-.169-.698-.105-.187-.297-.28-.563-.28H54.1v2.014zm5.791-2.714h2.82v.7h-.96v5.421h-.865v-5.421h-.995v-.7zm7.086 6.121v-6.121h.81l1.492 4.643.035-.017-.067-.9c-.024-.277-.047-.586-.075-.934-.024-.344-.042-.69-.054-1.025-.01-.337-.019-.927-.019-1.767h.861v6.121h-.8l-1.486-4.722-.019.012c.052.55.087.971.108 1.27.021.302.035.628.052.986.016.35.023.737.023 1.156 0 .269-.002.498-.005.678-.002.185-.01.393-.016.62h-.84zm7.82-6.121h2.284v.7h-1.446v1.932h1.3v.695h-1.3v2.078h1.446v.716h-2.284v-6.121zm6.756 6.121v-6.121h1.156c.465 0 .812.108 1.036.318.227.218.363.555.407 1.013.021.298.003.585-.065.857-.066.274-.169.494-.309.664-.143.171-.304.27-.498.29l1.17 2.98h-.878l-1.163-2.996h-.014v2.995h-.842zm.842-3.407c.578.024.866-.318.866-1.036 0-.279-.056-.51-.166-.698-.108-.187-.3-.28-.567-.28h-.133v2.014zm9.978-2.714h2.3v.7h-1.46v1.932h1.308v.695h-1.308v2.794h-.84v-6.121zm6.533 3.475c0-.192-.005-.34-.016-.445.011-.526.051-1.001.12-1.422.07-.422.198-.784.397-1.089.192-.301.47-.484.826-.55.414-.077.763-.035 1.046.12.28.161.496.39.639.697.145.311.231.646.262 1.009.042.674.065 1.165.065 1.483 0 .918-.124 1.631-.376 2.146-.253.52-.688.777-1.306.777-.515 0-.915-.22-1.2-.658-.286-.437-.44-1.13-.457-2.068zm.908-.178c-.012 1.416.241 2.136.768 2.158.023-.01.044-.017.065-.017.19-.023.328-.117.43-.292.099-.174.164-.37.197-.59.03-.218.052-.463.061-.737.007-.274.01-.576.01-.901.006-.45-.017-.847-.07-1.196-.055-.346-.139-.61-.249-.786-.11-.178-.253-.267-.428-.267h-.035c-.304.019-.506.239-.604.658-.096.421-.15.966-.157 1.638.007.084.012.196.012.332zm7.116 2.824v-6.121h1.158c.461 0 .808.108 1.032.318.23.218.365.555.41 1.013.023.298.002.585-.063.857-.066.274-.171.494-.31.664-.142.171-.31.27-.5.29l1.168 2.98h-.876l-1.16-2.996h-.019v2.995h-.84zm.84-3.407c.578.024.866-.318.866-1.036 0-.279-.054-.51-.164-.698-.115-.187-.3-.28-.566-.28h-.136v2.014zm9.978-2.714h.842v5.405h1.444v.716h-2.286v-6.121zm6.603 6.121h.845v-6.121h-.845v6.121zm5.696-6.121h2.302v.7h-1.462v1.932h1.308v.695h-1.308v2.794h-.84v-6.121zm6.706 0h2.284v.7h-1.444v1.932h1.301v.695h-1.3v2.078h1.443v.716h-2.284v-6.121z"/>
        <path fill="#008AC4" d="M26.91 17.342L138.2 17.342 138.2 16.481 26.91 16.481z"/>
    </g>
</svg>
