<?xml version="1.0" encoding="UTF-8"?>
<svg id="Layer_1" xmlns="http://www.w3.org/2000/svg" version="1.1" xmlns:xlink="http://www.w3.org/1999/xlink" viewBox="0 0 713.3 151">
  <!-- Generator: Adobe Illustrator 29.1.0, SVG Export Plug-In . SVG Version: 2.1.0 Build 142)  -->
  <defs>
    <style>
      .st0 {
        fill: url(#linear-gradient2);
      }

      .st1 {
        fill: #fff;
      }

      .st2 {
        fill: url(#linear-gradient1);
      }

      .st3 {
        fill: none;
      }

      .st4 {
        fill: #ffcb05;
      }

      .st5 {
        fill: #0a3252;
      }

      .st6 {
        fill: url(#linear-gradient4);
      }

      .st7 {
        fill: url(#linear-gradient5);
      }

      .st8 {
        fill: url(#linear-gradient3);
      }

      .st9 {
        fill: url(#linear-gradient);
      }

      .st10 {
        clip-path: url(#clippath);
      }

      .st11 {
        fill: #f26522;
      }
    </style>
    <linearGradient id="linear-gradient" x1="203.1" y1="30.4" x2="281.2" y2="124.5" gradientUnits="userSpaceOnUse">
      <stop offset=".2" stop-color="#ef3b24"/>
      <stop offset=".5" stop-color="#bc2621"/>
      <stop offset=".7" stop-color="#98181f"/>
      <stop offset=".8" stop-color="#8b131f"/>
    </linearGradient>
    <linearGradient id="linear-gradient1" x1="204.1" y1="88.4" x2="308.9" y2="88.4" gradientUnits="userSpaceOnUse">
      <stop offset="0" stop-color="#8b131f"/>
      <stop offset="1" stop-color="#ef3b24"/>
    </linearGradient>
    <linearGradient id="linear-gradient2" x1="47.5" y1="33.4" x2="47.5" y2="153.6" gradientUnits="userSpaceOnUse">
      <stop offset="0" stop-color="#aeaeae"/>
      <stop offset=".2" stop-color="#bbb"/>
      <stop offset=".5" stop-color="#fff"/>
      <stop offset=".5" stop-color="#cacaca"/>
      <stop offset=".5" stop-color="#bbb"/>
      <stop offset=".6" stop-color="#dbdbdb"/>
      <stop offset=".7" stop-color="#f5f5f5"/>
      <stop offset=".8" stop-color="#fff"/>
      <stop offset=".8" stop-color="#f7f7f7"/>
      <stop offset=".8" stop-color="#e3e3e3"/>
      <stop offset=".9" stop-color="#c2c2c2"/>
      <stop offset=".9" stop-color="#959595"/>
      <stop offset="1" stop-color="#5b5b5b"/>
      <stop offset="1" stop-color="#4a4a4a"/>
    </linearGradient>
    <clipPath id="clippath">
      <polygon class="st3" points="150.5 33.4 137.6 33.4 137.6 47.9 150.5 47.9 150.5 60.8 165 60.8 165 47.9 165 33.4 150.5 33.4"/>
    </clipPath>
    <linearGradient id="linear-gradient3" x1="96.8" y1="132.9" x2="165.5" y2="64.2" gradientTransform="translate(64.9 -85.6) rotate(24.6)" gradientUnits="userSpaceOnUse">
      <stop offset="0" stop-color="#ecc468"/>
      <stop offset=".2" stop-color="#d0922a"/>
      <stop offset=".3" stop-color="#bd862a"/>
      <stop offset=".3" stop-color="#ab7a2a"/>
      <stop offset=".4" stop-color="#a1742a"/>
      <stop offset=".5" stop-color="#9e722a"/>
      <stop offset=".5" stop-color="#a6772a"/>
      <stop offset=".6" stop-color="#be862a"/>
      <stop offset=".7" stop-color="#d0922a"/>
      <stop offset=".7" stop-color="#d69e34"/>
      <stop offset=".8" stop-color="#ebc95a"/>
      <stop offset=".8" stop-color="#f9e471"/>
      <stop offset=".9" stop-color="#feee7a"/>
      <stop offset=".9" stop-color="#fbe875"/>
      <stop offset=".9" stop-color="#f5d969"/>
      <stop offset=".9" stop-color="#eac156"/>
      <stop offset="1" stop-color="#db9e3a"/>
      <stop offset="1" stop-color="#d28829"/>
    </linearGradient>
    <linearGradient id="linear-gradient4" x1="138.7" y1="33.4" x2="138.7" y2="153.9" xlink:href="#linear-gradient2"/>
    <linearGradient id="linear-gradient5" x1="134.3" y1="174.7" x2="134.3" y2="-16.6" gradientUnits="userSpaceOnUse">
      <stop offset="0" stop-color="#4a4a4a"/>
      <stop offset="0" stop-color="#5b5b5b"/>
      <stop offset="0" stop-color="#959595"/>
      <stop offset=".1" stop-color="#c2c2c2"/>
      <stop offset=".2" stop-color="#e3e3e3"/>
      <stop offset=".2" stop-color="#f7f7f7"/>
      <stop offset=".2" stop-color="#fff"/>
      <stop offset=".3" stop-color="#f5f5f5"/>
      <stop offset=".4" stop-color="#dbdbdb"/>
      <stop offset=".5" stop-color="#bbb"/>
      <stop offset=".5" stop-color="#cacaca"/>
      <stop offset=".5" stop-color="#fff"/>
      <stop offset=".8" stop-color="#bbb"/>
      <stop offset="1" stop-color="#aeaeae"/>
    </linearGradient>
  </defs>
  <rect class="st5" y="0" width="713.3" height="151"/>
  <g>
    <g>
      <g>
        <g>
          <path class="st1" d="M380.4,142.2c-.5-1.3-1.2-2.9-2.2-5-.9-2.1-2-4.4-3.2-6.8-1.2-2.5-2.4-5-3.6-7.6-1.2-2.6-2.4-5.1-3.5-7.4-1.1-2.3-2.1-4.3-3-6-.9-1.7-1.5-2.9-1.9-3.7-.7,6.4-1.2,13.2-1.6,20.7-.4,7.4-.7,15.3-1,23.4h-5.1c.5-9.6,1-18.8,1.6-27.6.6-8.8,1.3-17.2,2.2-25.2h4.6c1.5,2.5,3.2,5.5,4.9,8.8,1.7,3.3,3.4,6.8,5.2,10.4,1.7,3.6,3.4,7.1,5,10.6,1.6,3.5,3,6.6,4.2,9.4,1.2-2.8,2.6-5.9,4.2-9.4,1.6-3.5,3.3-7,5-10.6,1.7-3.6,3.4-7,5.2-10.4,1.7-3.3,3.4-6.3,4.9-8.8h4.3c.9,8,1.6,16.4,2.2,25.2.6,8.8,1.1,18,1.6,27.6h-5.3c-.3-8.2-.6-16-1-23.4-.4-7.4-.9-14.3-1.6-20.7-.4.7-1,1.9-1.9,3.7-.9,1.7-1.9,3.7-3,6-1.1,2.3-2.3,4.7-3.5,7.4-1.2,2.6-2.4,5.2-3.6,7.6-1.2,2.5-2.2,4.7-3.2,6.8-.9,2.1-1.7,3.8-2.2,5h-4.6Z"/>
          <path class="st1" d="M446,148.5c-1.5.4-3.5.9-5.9,1.4-2.5.5-5.5.8-9.1.8s-5.4-.4-7.4-1.3c-2-.9-3.6-2.1-4.8-3.7-1.2-1.6-2.1-3.5-2.6-5.7-.5-2.2-.8-4.7-.8-7.4v-22.1h5v20.5c0,2.8.2,5.2.6,7.1.4,1.9,1.1,3.5,2,4.7.9,1.2,2.1,2.1,3.5,2.6,1.4.5,3.2.8,5.3.8s4.4-.1,6.1-.4c1.7-.3,2.8-.5,3.3-.7v-34.6h5v38Z"/>
          <path class="st1" d="M457.3,110.4h15.7v4.2h-15.7v21c0,2.2.2,4.1.6,5.4.4,1.4.9,2.5,1.6,3.2.7.8,1.6,1.3,2.6,1.5,1,.3,2.1.4,3.4.4,2.1,0,3.8-.2,5-.7,1.3-.5,2.3-.9,3-1.3l1.2,4.1c-.7.5-2,1-3.7,1.6-1.8.6-3.7.9-5.8.9s-4.5-.3-6.1-1c-1.7-.6-3-1.6-4-2.9-1-1.3-1.7-2.9-2.1-4.8-.4-1.9-.6-4.2-.6-6.9v-36.3l5-.9v12.5Z"/>
          <path class="st1" d="M508.4,148.5c-1.5.4-3.5.9-5.9,1.4-2.5.5-5.5.8-9.1.8s-5.4-.4-7.4-1.3c-2-.9-3.6-2.1-4.8-3.7-1.2-1.6-2.1-3.5-2.6-5.7-.5-2.2-.8-4.7-.8-7.4v-22.1h5v20.5c0,2.8.2,5.2.6,7.1.4,1.9,1.1,3.5,2,4.7.9,1.2,2.1,2.1,3.5,2.6,1.4.5,3.2.8,5.3.8s4.4-.1,6.1-.4c1.7-.3,2.8-.5,3.3-.7v-34.6h5v38Z"/>
          <path class="st1" d="M527.9,109.5c2.6,0,4.8.4,6.6,1.1,1.8.7,3.3,1.8,4.4,3,1.1,1.3,1.9,2.8,2.4,4.6.5,1.8.8,3.7.8,5.8v24.8c-.5.2-1.2.3-2.2.5-1,.2-2.1.4-3.4.6-1.3.2-2.7.4-4.2.5-1.6.1-3.1.2-4.8.2s-4-.2-5.8-.7c-1.8-.5-3.3-1.2-4.6-2.2-1.3-1-2.3-2.3-3-3.8-.7-1.5-1.1-3.4-1.1-5.7s.4-4,1.2-5.5c.8-1.5,2-2.8,3.4-3.8,1.5-1,3.2-1.7,5.3-2.2,2-.5,4.2-.7,6.6-.7s1.5,0,2.2.1c.8,0,1.5.2,2.3.3.7.1,1.4.3,1.9.4.5.1.9.2,1.1.3v-2.4c0-1.4-.1-2.7-.3-4-.2-1.3-.6-2.5-1.3-3.5-.7-1-1.7-1.9-2.9-2.5-1.2-.6-2.9-1-4.9-1-2.9,0-5.1.2-6.5.6-1.4.4-2.5.7-3.1,1l-.7-4.3c.9-.4,2.2-.8,4-1.1,1.8-.4,4-.5,6.5-.5ZM528.3,146.3c1.9,0,3.6,0,5.1-.2,1.4-.1,2.7-.3,3.7-.5v-13.9c-.6-.3-1.4-.5-2.7-.8-1.2-.3-2.9-.4-5-.4s-2.5,0-3.8.3c-1.3.2-2.5.6-3.7,1.1-1.1.6-2,1.4-2.7,2.4-.7,1-1.1,2.4-1.1,4s.2,2.7.7,3.7c.5,1,1.2,1.8,2.1,2.4.9.6,2,1.1,3.2,1.3,1.2.3,2.7.4,4.2.4Z"/>
          <path class="st1" d="M557.8,150.5c-1.7,0-3.1-.3-4.4-.6-1.2-.4-2.3-1-3.1-1.8-.8-.8-1.5-1.8-1.9-3-.4-1.2-.6-2.8-.6-4.7v-48.8l5-.9v49.5c0,1.2.1,2.2.3,2.9.2.7.6,1.3,1,1.8.5.4,1.1.7,1.8,1,.7.2,1.6.4,2.6.5l-.7,4.1Z"/>
          <path class="st1" d="M575.3,149.8v-52.8h30.1v4.5h-24.9v18.6h22.1v4.5h-22.1v25.2h-5.2Z"/>
          <path class="st1" d="M638.2,148.5c-1.5.4-3.5.9-5.9,1.4-2.5.5-5.5.8-9.1.8s-5.4-.4-7.4-1.3c-2-.9-3.6-2.1-4.8-3.7-1.2-1.6-2.1-3.5-2.6-5.7-.5-2.2-.8-4.7-.8-7.4v-22.1h5v20.5c0,2.8.2,5.2.6,7.1.4,1.9,1.1,3.5,2,4.7.9,1.2,2.1,2.1,3.5,2.6,1.4.5,3.2.8,5.3.8s4.4-.1,6.1-.4c1.7-.3,2.8-.5,3.3-.7v-34.6h5v38Z"/>
          <path class="st1" d="M643.2,111.8c1.5-.4,3.5-.9,5.9-1.4,2.5-.5,5.5-.8,9.1-.8s5.5.4,7.5,1.3c2,.9,3.6,2.1,4.8,3.7,1.2,1.6,2,3.5,2.6,5.8.5,2.2.8,4.7.8,7.4v22h-5v-20.4c0-2.8-.2-5.2-.6-7.1-.4-1.9-1-3.5-1.9-4.7-.9-1.2-2.1-2.1-3.5-2.6-1.4-.5-3.3-.8-5.4-.8s-4.4.1-6.1.4c-1.7.3-2.8.5-3.3.7v34.6h-5v-38Z"/>
          <path class="st1" d="M712.2,148.6c-1.5.5-3.4,1-5.6,1.4-2.3.5-5.2.7-8.7.7s-5.5-.5-7.9-1.4c-2.4-.9-4.4-2.3-6.1-4.1-1.7-1.8-3-3.9-4-6.5-.9-2.5-1.4-5.4-1.4-8.6s.4-5.8,1.2-8.3c.8-2.5,1.9-4.7,3.5-6.5s3.4-3.3,5.6-4.3c2.2-1,4.7-1.5,7.6-1.5s4.8.4,6.7,1.1c1.9.7,3.3,1.4,4.2,2.1v-21.2l5-.9v57.9ZM707.3,117.6c-.5-.4-1-.7-1.7-1.1-.7-.4-1.5-.8-2.4-1.1-.9-.4-1.9-.6-3-.9-1.1-.2-2.2-.3-3.4-.3-2.4,0-4.5.4-6.1,1.3-1.7.9-3,2-4,3.5-1,1.4-1.8,3.2-2.2,5.1-.5,2-.7,4-.7,6.2,0,5.2,1.3,9.2,3.9,11.9,2.6,2.8,6,4.2,10.3,4.2s4.4-.1,5.9-.3c1.5-.2,2.6-.5,3.4-.7v-27.6Z"/>
        </g>
        <g>
          <path class="st1" d="M371.3,86c-2.8,0-5.6-.1-8.5-.3-2.8-.2-5.3-.5-7.5-1.1v-51.2c1.1-.2,2.3-.4,3.6-.6,1.3-.2,2.6-.3,3.9-.4,1.3-.1,2.6-.2,3.9-.2,1.3,0,2.5,0,3.7,0,3.2,0,6.2.2,8.9.7,2.8.5,5.1,1.3,7.1,2.4,2,1.1,3.6,2.6,4.7,4.4,1.1,1.8,1.7,4.1,1.7,6.8s-.6,4.6-1.8,6.4c-1.2,1.8-2.9,3.2-5,4.3,3.2,1.1,5.6,2.6,7.1,4.7,1.5,2.1,2.3,4.7,2.3,7.9,0,5.4-2,9.5-5.9,12.2-4,2.7-10,4.1-18.2,4.1ZM364.8,54.1h6.8c3.7,0,6.5-.5,8.6-1.6,2.1-1,3.1-2.9,3.1-5.6s-1.1-4.3-3.2-5.4c-2.2-1.1-5-1.6-8.4-1.6s-2.8,0-3.9,0c-1.1,0-2.1.1-2.9.2v13.8ZM364.8,61.6v16.1c1.1.1,2.2.2,3.4.2,1.2,0,2.3,0,3.4,0,2,0,3.8-.1,5.5-.4,1.7-.2,3.2-.7,4.4-1.3,1.2-.6,2.2-1.5,3-2.5.7-1.1,1.1-2.4,1.1-4.1,0-3-1.1-5.1-3.3-6.2-2.2-1.2-5.2-1.8-9-1.8h-8.4Z"/>
          <path class="st1" d="M413.2,44.6c3,0,5.6.4,7.7,1.2,2.1.8,3.7,1.8,5,3.2,1.2,1.4,2.1,3,2.7,5,.5,2,.8,4.1.8,6.4v24.1c-1.4.3-3.6.7-6.4,1.1-2.9.4-6.1.6-9.7.6s-4.6-.2-6.6-.7c-2-.5-3.7-1.2-5-2.2-1.4-1-2.5-2.3-3.3-4-.8-1.6-1.2-3.6-1.2-6s.4-4.2,1.3-5.8c.9-1.6,2.1-2.9,3.6-3.8,1.5-1,3.3-1.7,5.3-2.1,2-.4,4.1-.7,6.3-.7s2.1,0,3.2.2c1.1.1,2.3.3,3.6.6v-1.5c0-1.1-.1-2.1-.4-3-.3-1-.7-1.8-1.3-2.5-.6-.7-1.5-1.3-2.5-1.7-1-.4-2.4-.6-3.9-.6s-4.1.1-5.8.5c-1.8.3-3.2.6-4.3,1.1l-1.1-7.5c1.2-.4,2.9-.8,5.1-1.2,2.3-.4,4.6-.6,7.2-.6ZM413.9,78.9c2.9,0,5-.1,6.5-.5v-10.2c-.5-.1-1.2-.3-2.2-.5-1-.1-2-.2-3.2-.2s-2,0-3.1.2c-1,.1-2,.4-2.8.9-.8.4-1.5,1-2,1.7-.5.7-.7,1.7-.7,2.8,0,2.2.7,3.7,2,4.5,1.4.8,3.2,1.3,5.5,1.3Z"/>
          <path class="st1" d="M435.6,46.9c1.8-.5,4.1-1,6.9-1.5,2.8-.4,6-.7,9.4-.7s6,.4,8.1,1.3c2.2.9,3.9,2.1,5.2,3.7,1.3,1.6,2.2,3.5,2.7,5.8.5,2.3.8,4.7.8,7.4v22.4h-9.2v-20.9c0-2.1-.1-3.9-.4-5.4-.3-1.5-.7-2.7-1.4-3.7-.6-.9-1.5-1.6-2.6-2-1.1-.4-2.4-.7-4-.7s-2.4,0-3.6.2c-1.3.2-2.2.3-2.8.4v32.1h-9.2v-38.5Z"/>
          <path class="st1" d="M508.8,84.1c-1.8.6-4.1,1.1-6.9,1.5-2.8.5-5.7.7-8.7.7s-6-.5-8.5-1.4c-2.5-1-4.6-2.4-6.4-4.2-1.7-1.8-3.1-4-4-6.5-1-2.6-1.4-5.4-1.4-8.6s.4-6,1.2-8.6c.8-2.6,1.9-4.8,3.5-6.6,1.5-1.8,3.4-3.2,5.6-4.2,2.2-1,4.7-1.5,7.5-1.5s3.6.2,5.1.7c1.5.5,2.7,1,3.8,1.5v-19.1l9.2-1.5v57.8ZM482.4,65.3c0,4.1,1,7.2,2.9,9.5,1.9,2.3,4.6,3.5,8,3.5s2.7,0,3.8-.2c1-.1,1.9-.3,2.5-.4v-22.8c-.8-.5-1.9-1.1-3.2-1.5-1.3-.5-2.8-.7-4.3-.7-3.3,0-5.8,1.2-7.3,3.4-1.5,2.3-2.3,5.4-2.3,9.3Z"/>
          <path class="st1" d="M515.6,85.4V27.8l9.2-1.5v19.7c1-.4,2.2-.7,3.5-.9,1.3-.3,2.7-.4,4-.4,3.2,0,5.8.4,7.9,1.3,2.1.9,3.8,2.1,5.1,3.7,1.3,1.6,2.2,3.5,2.7,5.7.5,2.2.8,4.7.8,7.5v22.4h-9.2v-20.9c0-2.1-.2-3.9-.4-5.4-.3-1.5-.7-2.7-1.4-3.7-.6-.9-1.5-1.6-2.5-2-1.1-.4-2.4-.7-4-.7s-2.5.1-3.7.4c-1.3.3-2.2.5-2.8.7v31.7h-9.2Z"/>
          <path class="st1" d="M568.2,44.6c3.1,0,5.6.4,7.7,1.2,2.1.8,3.8,1.8,5,3.2,1.2,1.4,2.1,3,2.7,5,.5,2,.8,4.1.8,6.4v24.1c-1.4.3-3.6.7-6.4,1.1-2.9.4-6.1.6-9.7.6s-4.6-.2-6.5-.7c-2-.5-3.7-1.2-5.1-2.2-1.4-1-2.5-2.3-3.3-4-.8-1.6-1.2-3.6-1.2-6s.4-4.2,1.3-5.8c.9-1.6,2.1-2.9,3.6-3.8,1.5-1,3.3-1.7,5.3-2.1,2-.4,4.1-.7,6.3-.7s2.1,0,3.2.2c1.1.1,2.3.3,3.6.6v-1.5c0-1.1-.1-2.1-.4-3-.3-1-.7-1.8-1.3-2.5-.6-.7-1.5-1.3-2.5-1.7-1-.4-2.3-.6-3.9-.6s-4.1.1-5.9.5c-1.8.3-3.2.6-4.3,1.1l-1.1-7.5c1.2-.4,2.9-.8,5.1-1.2,2.2-.4,4.6-.6,7.1-.6ZM568.9,78.9c2.8,0,5-.1,6.5-.5v-10.2c-.5-.1-1.2-.3-2.2-.5-.9-.1-2-.2-3.2-.2s-2,0-3.1.2c-1,.1-2,.4-2.8.9-.8.4-1.5,1-2,1.7-.5.7-.8,1.7-.8,2.8,0,2.2.7,3.7,2,4.5,1.4.8,3.2,1.3,5.6,1.3Z"/>
          <path class="st1" d="M590.6,46.9c1.8-.5,4.1-1,6.9-1.5,2.8-.4,6-.7,9.4-.7s6,.4,8.1,1.3c2.2.9,3.9,2.1,5.2,3.7,1.3,1.6,2.2,3.5,2.7,5.8.5,2.3.8,4.7.8,7.4v22.4h-9.2v-20.9c0-2.1-.1-3.9-.4-5.4-.3-1.5-.7-2.7-1.4-3.7-.6-.9-1.5-1.6-2.6-2-1.1-.4-2.4-.7-4-.7s-2.4,0-3.7.2c-1.3.2-2.2.3-2.8.4v32.1h-9.2v-38.5Z"/>
        </g>
      </g>
      <g>
        <g>
          <path class="st9" d="M265.9,25.8c-1.6,1.6-4,4.2-5.4,6.1-7.1,9.1-11.7,21.4-11.7,36.7,0,29.8,24.1,49.1,53.9,49.1s14.1-1.4,20.3-4c-14.6,32.3-45.7,37.1-57.1,37.1-34.5,0-62.5-28-62.5-62.6s27.1-61.5,60.7-62.5c.1,0,1.7,0,1.8,0Z"/>
          <path class="st2" d="M265.9,25.8c1.6,1.6,4.2,4.2,5.6,6.1,9.4,12.5,11.6,24.5,11.6,36.8,0,29.8-24.2,49.1-53.9,49.1s-14-1.4-20.3-4c14.9,33.2,45.7,37.1,57.1,37.1,34.5,0,62.6-28,62.6-62.6s-27.1-61.5-60.8-62.5c0,0-1.8,0-1.8,0Z"/>
          <path class="st1" d="M259.5,33.3c-6.6,9.1-10.7,20.9-10.7,35.1,0,15.6,6.7,28.6,17.2,37.2,10.4-8.6,17.3-21.4,17.1-36.9-.1-11.7-1.2-22.6-11.3-36.4-1.6-2.2-4.4-5.1-5.9-6.5-.2,0-3.9,3.9-6.5,7.5Z"/>
        </g>
        <path class="st4" d="M257.3,9.9c-8.7,12-14.2,27.7-14.1,46.5,0,20.7,8.9,37.9,22.8,49.3,13.8-11.4,22.9-28.3,22.6-48.9-.2-15.4-1.6-29.9-14.9-48.2-2.1-2.9-5.8-6.7-7.7-8.6-.2,0-5.2,5.2-8.6,9.9Z"/>
        <path class="st11" d="M259.4,33.1c-6.6,9.1-10.8,21-10.7,35.2,0,15.7,6.7,28.7,17.3,37.4,10.4-8.6,17.4-21.4,17.2-37.1-.1-11.7-1.2-22.6-11.3-36.5-1.6-2.2-4.4-5.1-5.9-6.5-.2,0-3.9,3.9-6.5,7.5Z"/>
        <path class="st1" d="M261.8,59.6c-4.2,5.8-6.8,13.3-6.8,22.3,0,9.9,4.3,18.2,10.9,23.7,6.6-5.5,11-13.6,10.9-23.5,0-7.4-.8-14.4-7.2-23.2-1-1.4-2.8-3.2-3.7-4.1-.1,0-2.5,2.5-4.1,4.8Z"/>
      </g>
    </g>
    <path class="st0" d="M93.8,149.8H1.3l77.9-73.1c-1.5-16.2-15.2-28.9-31.7-28.9s-31.9,14.3-31.9,31.9,3.3,16.5,9.3,22.5l-10.3,10.3C5.9,103.8,1.1,92.1,1.1,79.8c0-25.6,20.8-46.4,46.4-46.4s46.4,20.8,46.4,46.4v3.1l-55.9,52.4h55.9v14.5Z"/>
    <g class="st10">
      <circle class="st8" cx="137.8" cy="60.6" r="42.3" transform="translate(-12.7 63.9) rotate(-25)"/>
    </g>
    <path class="st6" d="M157.4,94.6h16.3c-5.9-15.2-20.6-26-37.9-26h-17.5v-20.7h19.3v-14.5h-33.8v49.8h32c9,0,16.9,4.6,21.6,11.5ZM135.8,135.3h-32v14.5h32c17.2,0,32-10.8,37.9-26h-16.3c-4.7,6.9-12.6,11.5-21.6,11.5Z"/>
    <path class="st7" d="M104.3,104.1c-.6,1.2-1.3,2.4-2,3.6-.7-1.2-1.4-2.4-2-3.6-.6-1.2-1.2-2.4-1.8-3.6h-4.6c1,1.9,2,3.8,3,5.6s2.1,3.6,3.3,5.4v6.7h4v-6.8c1.2-1.8,2.3-3.6,3.3-5.4,1-1.8,2-3.6,3-5.5h-4.4c-.5,1.2-1.1,2.4-1.8,3.6ZM158.4,114.2c-.4-.6-.8-1.2-1.2-1.8-.4-.6-.8-1.1-1.1-1.5,1.1-.4,1.9-1.1,2.5-1.8.6-.8.9-1.8.9-3,0-2-.7-3.5-2.1-4.4-1.4-.9-3.4-1.4-6.1-1.4s-1.6,0-2.5.1c-.9,0-1.8.2-2.7.4v17.4h4v-6.5h2c.3.4.7.9,1,1.4.3.5.7,1,1,1.6.4.6.7,1.1,1,1.7.3.6.7,1.2,1,1.8h4.5c-.3-.6-.6-1.3-1-2-.4-.7-.7-1.3-1.1-1.9ZM154.4,107.9c-.6.4-1.7.6-3.2.6h-1.1v-4.8c.2,0,.4,0,.7,0,.2,0,.5,0,.8,0,1.3,0,2.2.2,2.9.5.7.4,1,1,1,1.9s-.3,1.5-1,1.9ZM116.2,110.5h7.1v-3.3h-7.1v-3.5h8v-3.3h-11.9v17.7h12.5v-3.3h-8.5v-4.3ZM140.6,108.2c-.6-1.4-1.1-2.8-1.7-4.1-.6-1.3-1.1-2.5-1.7-3.8h-3.8c-.6,1.2-1.2,2.5-1.7,3.8-.6,1.3-1.1,2.6-1.7,4.1-.6,1.4-1.2,3-1.8,4.6-.6,1.6-1.2,3.4-1.9,5.3h4.1c.2-.6.4-1.2.6-1.9.2-.6.4-1.3.7-1.9h6.9c.2.6.5,1.3.7,1.9s.4,1.3.6,1.9h4.3c-.7-1.9-1.3-3.7-1.9-5.3-.6-1.6-1.2-3.1-1.8-4.6ZM132.7,111.1c.3-.8.6-1.5.8-2.2.3-.7.5-1.3.7-1.9.2-.6.4-1.1.6-1.5.2-.4.3-.8.4-1,.1.3.2.6.4,1,.2.4.4,1,.6,1.5.2.6.5,1.2.7,1.9.3.7.5,1.4.8,2.2h-5.1ZM174.4,111.1c-.2-.6-.6-1.1-1-1.6-.5-.4-1-.8-1.7-1.2-.7-.3-1.5-.7-2.4-1-.4-.2-.8-.3-1.2-.4-.4-.1-.7-.3-1-.5-.3-.2-.5-.4-.7-.6-.2-.2-.2-.5-.2-.8,0-.5.2-.9.6-1.2.4-.3,1.1-.4,2.1-.4s1.6,0,2.2.3c.6.2,1.2.4,1.6.7l1.1-3.1c-.6-.3-1.3-.6-2.1-.8-.9-.3-1.9-.4-3.1-.4s-1.9.1-2.7.4c-.8.2-1.5.6-2,1.1-.6.5-1,1-1.3,1.7-.3.7-.5,1.4-.5,2.2s.1,1.5.4,2.1c.3.6.7,1.1,1.1,1.5.5.4,1,.7,1.6,1,.6.3,1.2.5,1.7.7,1.3.4,2.3.9,2.8,1.2.5.4.8.9.8,1.4s0,.5-.1.7c0,.2-.2.4-.5.6-.2.2-.5.3-.9.4-.4,0-.8.1-1.4.1-1.1,0-2.1-.1-2.8-.3-.8-.2-1.4-.5-2-.8l-1.1,3.2c.2.1.5.3.9.4.3.2.8.3,1.3.4s1,.3,1.7.3c.6,0,1.3.1,2.1.1,2.3,0,4.1-.5,5.2-1.4,1.2-.9,1.7-2.2,1.7-3.8s-.1-1.6-.3-2.2Z"/>
  </g>
</svg>