<svg id="Layer_1" data-name="Layer 1" xmlns="http://www.w3.org/2000/svg" viewBox="0 0 345.17 158.88"><defs><style>
  .cls-1{fill:#ED3237;}
  .cls-2{fill:#1E4679;}
  .cls-1,.cls-3,.cls-4{fill-rule:evenodd;}.cls-2{stroke:#1E4679;stroke-miterlimit:10;stroke-width:0.4px;}.cls-3{fill:#1e467a;}.cls-4{fill:#ed3237;}.cls-5{fill:#fefefe;}
</style></defs><title>Kotak-Logo_Red-For Mayuri</title><path class="cls-1" d="M202,86.2c12.12,0,21.34-7,21.34-19.16S214.07,47.82,202,47.82s-21.34,7-21.34,19.22S189.84,86.2,202,86.2Zm0-8.87c-5.84,0-8.24-4.86-8.24-10.29s2.4-10.35,8.24-10.35,8.24,4.86,8.24,10.35S207.8,77.33,202,77.33Z"/><path class="cls-1" d="M222.13,57.54h7.25V72.47c0,8.73,2.75,13.73,14.09,13.73a61.26,61.26,0,0,0,8-.7L251,77.26a24.22,24.22,0,0,1-3.88.49c-4,0-5.07-2.25-5.07-6.69V57.54h8.88V48.66h-8.88V36L229.6,40.42v8.24h-7.47Z"/><polygon class="cls-1" points="295.3 85.36 307.98 85.36 307.98 67.19 308.12 67.19 318.26 85.36 333.61 85.36 319.81 65.49 332.56 48.66 318.68 48.66 308.12 64.09 307.98 64.09 307.98 36.02 295.3 40.41 295.3 85.36 295.3 85.36"/><polygon class="cls-1" points="146.86 85.36 159.53 85.36 159.53 67.19 159.68 67.19 169.82 85.36 185.17 85.36 171.37 65.49 184.12 48.66 170.24 48.66 159.68 64.09 159.53 64.09 159.53 36.02 146.86 40.2 146.86 85.36 146.86 85.36"/><path class="cls-1" d="M290.8,85.53a45.21,45.21,0,0,1-.71-8.77V62.94c0-11.34-8.2-15.4-17.68-15.4a38.36,38.36,0,0,0-14.83,2.64l.22,8.69a24.1,24.1,0,0,1,11.83-2.78c4.63,0,8.41,1.36,8.48,6.42a36.53,36.53,0,0,0-6-.5C265.28,62,253,63.36,253,74.7c0,8,6.56,11.68,13.9,11.68,5.27,0,8.84-2.06,11.76-6.69h.14c0,1.92.22,3.85.29,5.84ZM264.92,73.77c0-3.56,3.43-4.92,7.77-4.92,1.93,0,3.78.14,5.42.21,0,4.35-3.06,8.77-7.91,8.77C267.2,77.83,264.92,76.34,264.92,73.77Z"/><path class="cls-2" d="M146.92,122.51h2.25V102h.06l8.54,20.5h1.92L168,102h0v20.5h2.25V99.76H167l-8.34,20-8.32-20h-3.48v22.75Zm41.72-16.62h-2.06v9.19a9.57,9.57,0,0,1-.15,1.69,7.23,7.23,0,0,1-.5,1.64,5,5,0,0,1-.92,1.39,4.09,4.09,0,0,1-1.4,1,4.89,4.89,0,0,1-2,.36,3.83,3.83,0,0,1-2.28-.64,3.61,3.61,0,0,1-1.27-1.78,7.89,7.89,0,0,1-.39-2.73v-10.1h-2.06v10.62a10.33,10.33,0,0,0,.31,2.54,5.38,5.38,0,0,0,1,2,4.41,4.41,0,0,0,1.76,1.35,6.86,6.86,0,0,0,2.61.48,7.1,7.1,0,0,0,2.2-.32,4.67,4.67,0,0,0,1.53-.8,4.89,4.89,0,0,0,1-1.08,7.73,7.73,0,0,0,.64-1.16h.07v3h2c-.06-.67-.1-1.33-.12-2V105.89Zm12.32,0h-3.79v-4.73l-2,.72v4h-3.26v1.76h3.26v9.71c0,.71,0,1.43.08,2.14a5.68,5.68,0,0,0,.44,1.77,2.66,2.66,0,0,0,1.13,1.19,4.46,4.46,0,0,0,2.13.44,6.74,6.74,0,0,0,1-.08,6.51,6.51,0,0,0,.88-.17c.22-.06.43-.13.64-.21l-.13-1.69a6.31,6.31,0,0,1-.87.28,4.79,4.79,0,0,1-1,.11,2.2,2.2,0,0,1-1.31-.37,2,2,0,0,1-.7-1,4.06,4.06,0,0,1-.21-1.38V107.65H201v-1.76Zm16.65,0h-2.05v9.19a9.57,9.57,0,0,1-.15,1.69,8.62,8.62,0,0,1-.5,1.64,5.17,5.17,0,0,1-.92,1.39,4,4,0,0,1-1.41,1,5,5,0,0,1-1.94.36,3.88,3.88,0,0,1-2.29-.64,3.61,3.61,0,0,1-1.27-1.78,8.39,8.39,0,0,1-.39-2.73v-10.1h-2.05v10.62a9.45,9.45,0,0,0,.31,2.54,5.38,5.38,0,0,0,1,2,4.38,4.38,0,0,0,1.75,1.35,6.69,6.69,0,0,0,2.62.48,7.1,7.1,0,0,0,2.2-.32,4.67,4.67,0,0,0,1.53-.8,5.14,5.14,0,0,0,1-1.08,7.73,7.73,0,0,0,.64-1.16h.06v3h2c-.06-.67-.1-1.33-.11-2s0-1.3,0-1.93V105.89Zm14.7,16.62h2a10.61,10.61,0,0,1-.11-1.12,8.55,8.55,0,0,0,0-1.12v-8.58a8.84,8.84,0,0,0-.6-3.53,4,4,0,0,0-1.9-2,7.38,7.38,0,0,0-3.34-.64,8.08,8.08,0,0,0-1.2.09c-.43.06-.87.14-1.31.24a12,12,0,0,0-1.28.37,8.14,8.14,0,0,0-1.1.44v2a8.62,8.62,0,0,1,2.38-1.06,9.64,9.64,0,0,1,2.51-.31,4.35,4.35,0,0,1,2.21.47,2.74,2.74,0,0,1,1.21,1.43,6.36,6.36,0,0,1,.36,2.37v.84h-2.64a16.13,16.13,0,0,0-2.31.22,10.81,10.81,0,0,0-2.17.56,6.23,6.23,0,0,0-1.8,1,4.29,4.29,0,0,0-1.24,1.62,5.69,5.69,0,0,0-.46,2.37,4.71,4.71,0,0,0,.11,1.06,4.55,4.55,0,0,0,.45,1.23,4.15,4.15,0,0,0,.94,1.18,4.87,4.87,0,0,0,1.59.88,7.66,7.66,0,0,0,2.38.34,6.37,6.37,0,0,0,1.57-.2,6.24,6.24,0,0,0,1.5-.59,5.5,5.5,0,0,0,1.3-1,4.45,4.45,0,0,0,.91-1.32h.07v2.67Zm-.2-7.37a11.48,11.48,0,0,1-.05,1.31,7,7,0,0,1-.29,1.58,4.67,4.67,0,0,1-.76,1.51,3.79,3.79,0,0,1-1.45,1.15,5.68,5.68,0,0,1-2.37.45,4.93,4.93,0,0,1-1.74-.29,2.68,2.68,0,0,1-1.23-1,3,3,0,0,1-.48-1.75,3.41,3.41,0,0,1,.46-1.82,3.68,3.68,0,0,1,1.25-1.17,6.83,6.83,0,0,1,1.8-.66,13.43,13.43,0,0,1,2.1-.29c.74,0,1.46-.07,2.18-.07h.58v1Zm6.95,7.37h2.05V98.06h-2.05Zm16.23,0h2.25V111.79h8.18v-2h-8.18v-8.12h8.57V99.76H255.29v22.75Zm27.5-16.62h-2.05v9.19a9.57,9.57,0,0,1-.15,1.69,7.23,7.23,0,0,1-.5,1.64,5,5,0,0,1-.92,1.39,4.09,4.09,0,0,1-1.4,1,5,5,0,0,1-1.95.36,3.83,3.83,0,0,1-2.28-.64,3.61,3.61,0,0,1-1.27-1.78,7.89,7.89,0,0,1-.39-2.73v-10.1h-2.06v10.62a10.33,10.33,0,0,0,.31,2.54,5.38,5.38,0,0,0,1,2,4.41,4.41,0,0,0,1.76,1.35,6.86,6.86,0,0,0,2.61.48,7.1,7.1,0,0,0,2.2-.32,4.67,4.67,0,0,0,1.53-.8,5.14,5.14,0,0,0,1-1.08,7.73,7.73,0,0,0,.64-1.16h.07v3h2c-.06-.67-.09-1.33-.11-2s0-1.3,0-1.93V105.89Zm5.15,16.62H290v-9.19a9.68,9.68,0,0,1,.15-1.7,7.15,7.15,0,0,1,.5-1.63,5.22,5.22,0,0,1,.92-1.4,4.09,4.09,0,0,1,1.4-1,4.82,4.82,0,0,1,1.95-.36,3.7,3.7,0,0,1,2.28.64,3.51,3.51,0,0,1,1.27,1.78,7.87,7.87,0,0,1,.39,2.72v10.11h2.05v-10.6a9.84,9.84,0,0,0-.3-2.53,5.7,5.7,0,0,0-1-2,4.45,4.45,0,0,0-1.76-1.34,6.5,6.5,0,0,0-2.61-.48,6.81,6.81,0,0,0-2.2.31,4.77,4.77,0,0,0-1.53.8,4.7,4.7,0,0,0-1,1.09,7.18,7.18,0,0,0-.64,1.15h-.07v-3h-2c.07.66.11,1.32.12,2s0,1.3,0,1.94v12.71Zm31.29-24.45h-2.05v10.63h-.07a2.65,2.65,0,0,0-.33-.65,5.47,5.47,0,0,0-.68-.83,6.07,6.07,0,0,0-1-.82,5.41,5.41,0,0,0-1.38-.64,6.21,6.21,0,0,0-1.77-.25,7,7,0,0,0-3.13.64A5.46,5.46,0,0,0,306.7,108a8.22,8.22,0,0,0-1.21,2.76,14.64,14.64,0,0,0-.38,3.49,12.88,12.88,0,0,0,.43,3.44,8.28,8.28,0,0,0,1.28,2.76,6,6,0,0,0,2.14,1.83,6.49,6.49,0,0,0,3,.67,6.07,6.07,0,0,0,3.07-.72,5.41,5.41,0,0,0,2.11-2.31h.07v2.64h2.05V98.06ZM307.34,114.2a12.15,12.15,0,0,1,.13-2,9.41,9.41,0,0,1,.47-1.88,5.79,5.79,0,0,1,.89-1.59,3.89,3.89,0,0,1,1.41-1.1,4.75,4.75,0,0,1,2-.41,4.07,4.07,0,0,1,1.91.42,4.42,4.42,0,0,1,1.4,1.14,6.68,6.68,0,0,1,.93,1.62,10,10,0,0,1,.52,1.87,11.36,11.36,0,0,1,0,3.77,9.26,9.26,0,0,1-.52,1.87,6.37,6.37,0,0,1-.93,1.62,4.11,4.11,0,0,1-3.31,1.57,4.75,4.75,0,0,1-2-.41,4.09,4.09,0,0,1-1.41-1.1,5.7,5.7,0,0,1-.89-1.6,9.32,9.32,0,0,1-.47-1.87,13.35,13.35,0,0,1-.13-2Z"/><path class="cls-3" d="M11.56,79.44c0-29.4,27.7-53.22,61.88-53.22S135.32,50,135.32,79.44s-27.7,53.22-61.88,53.22S11.56,108.83,11.56,79.44Z"/><polygon class="cls-4" points="65.93 43.31 80.3 38.56 80.37 116.28 65.87 121.14 65.93 43.31 65.93 43.31"/><path class="cls-5" d="M120,84.8c-1.35,11.12-7.59,22.35-21.2,22.37-8,0-14.17-5.43-18.47-12.09V87.37C85.7,90,90.73,92.91,96.83,93c7.52.11,14.31-2.79,17.12-8.2Zm-45.52,7C68.21,99.31,62.17,107,50.86,107c-16,0-23.55-15.45-23.55-28.36,0-12.41,5.92-27.1,21.49-27.1,6.75,0,13.25,4.13,17.12,8.5V70.57c-3.24-2.17-10.49-4.31-15.22-4.39C40.82,66,32.12,70.29,32.27,80c.11,6.74,6.73,11.3,13.36,11.3C55.76,91.3,61.89,82.05,67,75c1.43-1.84,5.46-7.23,6.09-8.09,5.7-8,12.29-15.23,23.6-15.23,13.32,0,20.8,10.74,22.92,21.8h-6A14.29,14.29,0,0,0,102,67.73c-10.47,0-16.72,9.63-22,16.72,0,0-4.07,5.55-5.54,7.33Z"/></svg>